<?xml version="1.0"?>
<svg xmlns="http://www.w3.org/2000/svg" xmlns:xlink="http://www.w3.org/1999/xlink" version="1.1" id="Layer_1" x="0px" y="0px" viewBox="0 0 432 432" style="enable-background:new 0 0 432 432;" xml:space="preserve" width="512px" height="512px" class=""><g><path style="fill:#F87370" d="M64,171.2H24c-8.8,0-16,7.2-16,16v128c0,8.8,7.2,16,16,16h48v48l49.6-44c2.8-2.8,6.8-4,10.8-4h52  c8.8,0,16-7.2,16-16v-128c0-8.8-7.2-16-16-16H64L64,171.2z" data-original="#80D440" class="" data-old_color="#F8726F"/><path style="fill:#FB4742" d="M64,396.8v-57.6H24c-13.2,0-24-10.8-24-24v-128c0-13.2,10.8-24,24-24h160.4c13.2,0,24,10.8,24,24v128  c0,13.2-10.8,24-24,24h-52c-2.4,0-4,0.8-5.2,1.6l-0.4,0.4L64,396.8z M24,179.2c-4.4,0-8,3.6-8,8v128c0,4.4,3.6,8,8,8h56v38.4l36-32  c4-4,10-6,16.4-6h52c4.4,0,8-3.6,8-8V187.2c0-4.4-3.6-8-8-8H24z" data-original="#6EA62B" class="" data-old_color="#6EA62B"/><path style="fill:#F87370" d="M344,199.2v129.6L252.8,258c-5.6-4.4-12.4-6.8-19.6-6.8H104c-17.6,0-32-14.4-32-32v-144  c0-17.6,14.4-32,32-32h288c17.6,0,32,14.4,32,32v144c0,17.6-14.4,32-32,32h-48" data-original="#80D440" class="" data-old_color="#F8726F"/><path style="fill:#FB4742" d="M352,345.2l-104-80.8c-4.4-3.2-9.2-5.2-14.8-5.2H104c-22,0-40-18-40-40v-144c0-22,18-40,40-40h288  c22,0,40,18,40,40v144c0,22-18,40-40,40h-40V345.2z M104,51.2c-13.2,0-24,10.8-24,24v144c0,13.2,10.8,24,24,24h129.2  c8.8,0,17.6,2.8,24.4,8.4l78.4,60.8V199.2c0-4.4,3.6-8,8-8s8,3.6,8,8v44h40c13.2,0,24-10.8,24-24v-144c0-13.2-10.8-24-24-24H104z" data-original="#6EA62B" class="" data-old_color="#6EA62B"/><path style="fill:#EA423D" d="M352,195.2l48,48h-48V195.2L352,195.2z" data-original="#68B82B" class="active-path" data-old_color="#EB423D"/><g>
	<path style="fill:#FFFFFF" d="M344,131.2H148c-4.4,0-8-3.6-8-8s3.6-8,8-8h196c4.4,0,8,3.6,8,8S348.4,131.2,344,131.2z" data-original="#FFFFFF" class=""/>
	<path style="fill:#FFFFFF" d="M224,179.2h-76c-4.4,0-8-3.6-8-8s3.6-8,8-8h76c4.4,0,8,3.6,8,8S228.4,179.2,224,179.2z" data-original="#FFFFFF" class=""/>
	<path style="fill:#FFFFFF" d="M272,179.2h-12c-4.4,0-8-3.6-8-8s3.6-8,8-8h12c4.4,0,8,3.6,8,8S276.4,179.2,272,179.2z" data-original="#FFFFFF" class=""/>
</g></g> </svg>
